<?xml version="1.0" encoding="utf-8"?>
<!-- Generator: Adobe Illustrator 15.0.0, SVG Export Plug-In . SVG Version: 6.00 Build 0)  -->
<!DOCTYPE svg PUBLIC "-//W3C//DTD SVG 1.1//EN" "http://www.w3.org/Graphics/SVG/1.1/DTD/svg11.dtd">
<svg version="1.1" id="Layer_1" xmlns="http://www.w3.org/2000/svg" xmlns:xlink="http://www.w3.org/1999/xlink" x="0px" y="0px"
	 width="612px" height="612px" viewBox="0 21.5 612 612" enable-background="new 0 21.5 612 612" xml:space="preserve">
<path d="M492.623,496.472l0.067-0.049l-0.092-0.128c0-0.043,0-0.067,0-0.092l-8.421-15.423l-0.11,0.062l-27.442-49.768
	c-15,28.696-88.825,44.058-158.765,44.058s-143.765-15.361-158.765-44.058l-27.417,49.706l-0.092-0.049l-8.335,15.146l-0.128,0.374
	c0,0.019,0,0.019,0,0.043l-0.092,0.128l0.067,0.049c-0.128,0.925-0.19,1.787-0.19,2.626c0,34.021,87.461,70.294,194.953,70.294
	c107.485,0,194.946-36.279,194.946-70.294C492.812,498.277,492.733,497.396,492.623,496.472z"/>
<path d="M350.376,368.479v23.85h-0.11c-1.756,11.102-24.131,19.596-52.411,19.596c-28.262,0-50.649-8.494-52.387-19.596H245.4
	l-0.012-0.637c-0.025-0.251-0.037-0.514-0.037-0.771c0-0.104,0-0.202,0.006-0.306l-0.006-0.379v-21.763
	c-59.811,6.726-102.589,24.608-102.589,45.613c0,26.769,69.438,48.464,155.093,48.464c85.668,0,155.099-21.695,155.099-48.464
	C452.96,393.081,410.187,375.204,350.376,368.479z"/>
<path d="M297.854,342.156c-28.452,0-48.299,8.855-48.299,16.806c0,7.943,19.841,16.799,48.299,16.799
	c28.47,0,48.317-8.856,48.317-16.799C346.166,351.012,326.324,342.156,297.854,342.156z"/>
<path d="M135.864,414.023c0.019-7.889,4.119-14.964,11.322-21.212l-37.62-7.521l91.164-30.38l-30.386-121.549l91.164,60.772
	l30.386-121.543l30.392,121.543l121.537-91.164l-60.771,121.549h121.543l-97.283,48.642c12.84,3.874,23.936,8.543,32.54,13.947
	l117.069-79.97l-130.558-2.907l92.864-182.859L333.901,235.986l-43.893-175.57l-43.886,175.57l-131.678-87.785l50.747,188.514
	L48.697,388.228L135.864,414.023z"/>
<path d="M248.239,368.479V391.6c0,0,8.415,16.83,49.627,16.83c41.211,0,49.437-16.83,49.437-16.83v-23.121
	c0,0-2.123,17.001-49.449,17.001S248.239,368.479,248.239,368.479z"/>
<text transform="matrix(1 0 0 1 0 717.3008)" font-family="'HelveticaNeue-Bold'" font-size="30.6">Created by Ethan Clark</text>
<text transform="matrix(1 0 0 1 0 747.8984)" font-family="'HelveticaNeue-Bold'" font-size="30.6">from the Noun Project</text>
</svg>
